<?xml version="1.0" encoding="utf-8"?>
<!-- Generator: Adobe Illustrator 22.0.1, SVG Export Plug-In . SVG Version: 6.00 Build 0)  -->
<svg version="1.1" id="Layer_1" xmlns="http://www.w3.org/2000/svg" xmlns:xlink="http://www.w3.org/1999/xlink" x="0px" y="0px"
	 viewBox="0 0 100 99" style="enable-background:new 0 0 100 99;" xml:space="preserve">
<path d="M37.7,37.8c-0.8-0.9-2.3-1.1-3.3-0.3l-12,10c-0.5,0.4-0.9,1.1-0.9,1.8c0,0.6,0.3,1.4,0.9,1.8l12,10c0.4,0.4,0.9,0.5,1.5,0.5
	c0.6,0,1.4-0.3,1.8-0.9c0.8-1,0.6-2.4-0.3-3.3l-9.8-8.2l9.8-8.2C38.3,40.2,38.4,38.8,37.7,37.8z"/>
<path d="M77.5,48.3l-12-10c-0.9-0.8-2.4-0.6-3.3,0.3c-0.8,1-0.6,2.4,0.3,3.3l9.8,8.2l-9.8,8.2c-1,0.8-1.1,2.3-0.3,3.3
	c0.4,0.5,1.1,0.9,1.8,0.9c0.5,0,1-0.3,1.5-0.5l12-10c0.5-0.4,0.9-1.1,0.9-1.8C78.2,49.3,78,48.7,77.5,48.3z"/>
<path d="M56.2,27.5L56.2,27.5c-1.3-0.4-2.5,0.4-2.9,1.5L40.7,69.6c-0.4,1.3,0.3,2.5,1.5,2.9c0.3,0.1,0.5,0.1,0.6,0.1
	c1,0,1.9-0.6,2.1-1.6l12.6-40.6C58.1,29.1,57.3,27.9,56.2,27.5z"/>
<path d="M50,1C23,1,1,23,1,50c0,8.6,2.3,17,6.6,24.5l0.2,0.3l-4.4,15c-0.6,1.9,0,4,1.4,5.4s3.5,1.9,5.4,1.4l15.1-4.3l0.3,0.2
	C33,96.7,41.4,99,49.9,99c27,0,49-22,49-49S77,1,50,1z M50,95.1c-8.3,0-16.3-2.3-23.4-6.5l-0.7-0.4L9.2,93c-0.6,0.2-1.2,0-1.7-0.4
	c-0.4-0.4-0.6-1.1-0.4-1.7l4.8-16.6l-0.4-0.7C7.1,66.4,4.8,58.3,4.8,50C4.8,25.1,25.1,4.8,50,4.8S95.2,25.1,95.2,50
	S74.9,95.1,50,95.1z"/>
</svg>
