<?xml version="1.0" encoding="utf-8"?>
<!-- Generator: Adobe Illustrator 22.0.1, SVG Export Plug-In . SVG Version: 6.00 Build 0)  -->
<svg version="1.1" id="Layer_1" xmlns="http://www.w3.org/2000/svg" xmlns:xlink="http://www.w3.org/1999/xlink" x="0px" y="0px"
	 viewBox="0 0 82 82" style="enable-background:new 0 0 82 82;" xml:space="preserve">
<style type="text/css">
	.st0{fill:#FFFFFF;}
</style>
<title>Artboard 1 Copy 143</title>
<desc>Created with Sketch.</desc>
<g>
	<g>
		<path class="st0" d="M41,54.5l-22-22c-0.4-0.4-1-0.4-1.4,0c-0.4,0.4-0.4,1,0,1.4l22.6,22.6c0.2,0.2,0.5,0.3,0.8,0.3
			c0.3,0,0.6-0.1,0.8-0.3l22.6-22.6c0.4-0.4,0.4-1,0-1.4c-0.4-0.4-1-0.4-1.4,0L41,54.5z"/>
		<path class="st0" d="M82,41C82,18.4,63.6,0,41,0S0,18.4,0,41s18.4,41,41,41S82,63.6,82,41L82,41z M80,41c0,21.5-17.5,39-39,39
			S2,62.5,2,41S19.5,2,41,2S80,19.5,80,41L80,41z"/>
	</g>
</g>
</svg>
