<?xml version="1.0" encoding="utf-8"?>
<!-- Generator: Adobe Illustrator 22.0.1, SVG Export Plug-In . SVG Version: 6.00 Build 0)  -->
<svg version="1.1" id="Layer_1" xmlns="http://www.w3.org/2000/svg" xmlns:xlink="http://www.w3.org/1999/xlink" x="0px" y="0px"
	 viewBox="0 0 83.1 84.2" style="enable-background:new 0 0 83.1 84.2;" xml:space="preserve">
<title>Artboard 1 Copy 125</title>
<desc>Created with Sketch.</desc>
<g>
	<g>
		<path d="M55,42l-22,22c-0.4,0.4-0.4,1,0,1.4c0.4,0.4,1,0.4,1.4,0L57,42.8c0.2-0.2,0.3-0.5,0.3-0.8c0-0.3-0.1-0.6-0.3-0.8
			L34.3,18.5c-0.4-0.4-1-0.4-1.4,0c-0.4,0.4-0.4,1,0,1.4L55,42z"/>
		<path d="M41.5,1c-22.6,0-41,18.4-41,41s18.4,41,41,41s41-18.4,41-41S64.1,1,41.5,1L41.5,1z M41.5,3c21.5,0,39,17.5,39,39
			S63,81,41.5,81s-39-17.5-39-39S20,3,41.5,3L41.5,3z"/>
	</g>
</g>
</svg>
