<?xml version="1.0" encoding="utf-8"?>
<!-- Generator: Adobe Illustrator 22.0.1, SVG Export Plug-In . SVG Version: 6.00 Build 0)  -->
<svg version="1.1" id="Layer_1" xmlns="http://www.w3.org/2000/svg" xmlns:xlink="http://www.w3.org/1999/xlink" x="0px" y="0px"
	 viewBox="0 0 63.7 66.3" style="enable-background:new 0 0 63.7 66.3;" xml:space="preserve">
<title>New</title>
<rect x="47.9" y="20.7" transform="matrix(0.7071 -0.7071 0.7071 0.7071 -1.3356 41.0768)" width="2" height="2.8"/>
<path d="M40.4,52.1c1.4,0.4,2.9,0.1,4-0.8c1-0.7,1.7-1.6,2-2.7c1.7-0.3,3.2-1.4,3.9-3c0.6-1.2,0.6-2.6,0-3.8c1.7-1,3.3-3.2,4.9-5.5
	c0.2-0.3,0.4-0.6,0.5-0.8l1.1,1.1l6.4-6.4L47.9,14.7l-6.4,6.4l1.3,1.3c-0.3,0.3-0.6,0.5-1,0.7c-1.7-0.4-3.4-1-5-1.7
	c-0.8-0.3-1.6-0.6-2.4-0.9c-1-0.2-8.4,1.9-12.1,3.7l0,0l-1.5-1.6l1.5-1.5l-6.4-6.4L0.5,30.2l6.4,6.4l1.5-1.5L9,35.7
	c0.1,0.4,0.3,0.8,0.6,1.2l0,0l-1.2,1.2c-1.2,1.2-1.2,3.1,0,4.2c0,0,0,0,0,0l11.3,11.3c1.2,1.2,3.1,1.2,4.2,0c0,0,0,0,0,0l0.9-0.9
	l0.5,0.5l1.7,1.7c0.8,0.9,2,1.5,3.3,1.5c0.2,0,0.3,0,0.5,0c1.5-0.3,2.8-1.2,3.6-2.4c1,0.3,2.1,0.3,3.2,0
	C38.7,53.7,39.7,53,40.4,52.1z M47.9,17.6l12.6,12.6l-1,1l-2.6,2.6l-0.3-0.3l0,0l-0.7-0.7L45.7,22.6L45,21.9l-0.7-0.7L47.9,17.6z
	 M23.9,25.7c3-1.3,9-3.2,10.1-3.2l0,0c0.3,0.1,1.2,0.5,2.1,0.8c3.4,1.4,5.1,2,6,1.8c0.8-0.3,1.5-0.7,2.2-1.3L54.3,34
	c-0.2,0.3-0.5,0.6-0.8,1.1c-0.9,1.3-2.9,4.2-4.4,5c-0.2,0.1-0.4,0.2-0.6,0.2c-0.2,0-0.3,0-0.4-0.2c-2.2-1.9-6.2-6-9-9l-2.5-2.5
	c-0.7-0.6-1.6-0.9-2.5-0.8c-0.9,0-1.8,0.1-2.7,0.3c-0.6,0.1-1.2,0.2-1.8,0.4c-1,0.2-2,0.4-2.9,0.5c-1.1,0.1-2.2-0.2-3.2-0.9
	c-0.2-0.1-0.3-0.2-0.5-0.4c-0.1,0-0.1-0.1-0.2-0.1c-0.1-0.1-0.2-0.2-0.3-0.3c-0.2-0.2-0.4-0.5-0.5-0.8
	C22.8,26.2,23.3,25.9,23.9,25.7z M8.4,32.2L7,33.7l-0.1,0.1l-3.6-3.6l12.6-12.6l3.6,3.6l-0.1,0.1L18,22.7L8.4,32.2z M24.8,49.9
	c0,0.1-0.1,0.2-0.2,0.2l-1.2,1.2l-0.9,0.9c-0.4,0.4-1,0.4-1.4,0L9.8,40.9c-0.4-0.4-0.4-1,0-1.4l1-1l1.2-1.2c0.1-0.1,0.2-0.1,0.3-0.2
	c0.1,0,0.2,0,0.3,0h0.1c0.4,0.1,0.8,0.3,1.1,0.6c0.4,0.4,0.6,0.9,0.5,1.4c0,0.1-0.1,0.2-0.2,0.3l1.4,1.4c0.1-0.1,0.2-0.2,0.3-0.2
	c0.1,0,0.3,0,0.4,0c0.4,0.1,0.8,0.3,1.1,0.6c0.3,0.3,0.5,0.6,0.5,1c0,0.1,0,0.3,0,0.4c0,0.1-0.1,0.2-0.2,0.3l1.4,1.4
	c0.1-0.1,0.2-0.1,0.3-0.2c0.1,0,0.3,0,0.4,0c0.4,0.1,0.8,0.3,1.1,0.6c0.4,0.4,0.6,0.9,0.5,1.5c0,0.1-0.1,0.2-0.2,0.3l1.4,1.4
	c0.1-0.1,0.2-0.1,0.3-0.2c0.6-0.1,1.1,0.1,1.5,0.5C24.8,48.7,25,49.3,24.8,49.9z M37,52.1c-0.8,0.3-1.6,0.2-2.4-0.1l-4.5-4.5
	l-1.4,1.4l4.1,4.1c-0.5,0.8-1.3,1.3-2.2,1.6c-0.8,0-1.6-0.3-2.1-0.9l-2.2-2.2c1-1.4,0.8-3.3-0.5-4.4c-0.6-0.7-1.5-1.1-2.4-1.2
	c-0.2-1.8-1.7-3.3-3.5-3.5c-0.2-1.8-1.6-3.2-3.4-3.5h-0.2c-0.2-1.8-1.6-3.3-3.4-3.6c-0.6-0.1-1.2,0-1.8,0.3
	c-0.1-0.2-0.2-0.4-0.3-0.7l-0.1-0.2l-1-1l9.6-9.6l1.3,1.3c-0.1,0.1-0.1,0.1-0.2,0.2c-0.5,0.8-0.4,1.9,0.3,2.6c1.4,2,3.8,3.1,6.2,3
	c0.9-0.1,2-0.3,3-0.6c1.7-0.4,4.6-1,5.2-0.4s1.4,1.5,2.4,2.5c2.9,3,6.9,7.1,9.2,9.1c0.4,0.4,1,0.6,1.5,0.7c0.4,0.8,0.5,1.7,0.1,2.4
	c-0.5,1-1.5,1.8-2.7,2L38.1,39l-1.4,1.4l7.7,7.6c-0.2,0.7-0.6,1.2-1.2,1.6c-0.7,0.6-1.8,0.7-2.6,0.3l-6.6-6.7l-1.4,1.4l6.2,6.2
	C38.3,51.5,37.7,51.9,37,52.1z"/>
<rect x="13.5" y="21.2" transform="matrix(0.7071 -0.7071 0.7071 0.7071 -11.2935 17.0395)" width="2.8" height="2"/>
<path d="M2.7,38.3l-2,0.4c2.4,12.3,11.8,22,24,24.8l0.5-2C13.7,58.9,4.9,49.8,2.7,38.3z"/>
<path d="M38.4,61.6l0.5,2c11.8-2.7,21-11.9,23.7-23.7l-1.9-0.5C58,50.4,49.4,59,38.4,61.6z"/>
<path d="M38.4,3.9c5.8,1.3,11,4.3,15,8.6l1.5-1.4C42.9-1.6,23-2.3,10.2,9.6c-0.5,0.5-1.1,1-1.6,1.6l1.5,1.4
	C17.3,4.9,28.1,1.6,38.4,3.9z"/>
<rect x="23.9" y="14.7" transform="matrix(0.7071 -0.7071 0.7071 0.7071 -4.1219 22.346)" width="2" height="2.8"/>
<rect x="28.6" y="11.9" transform="matrix(0.9477 -0.3192 0.3192 0.9477 -2.7698 10.1547)" width="2" height="3.2"/>
<rect x="32.8" y="12.6" transform="matrix(0.3161 -0.9487 0.9487 0.3161 10.5891 41.9857)" width="3.2" height="2"/>
<rect x="37.5" y="15.1" transform="matrix(0.7071 -0.7071 0.7071 0.7071 -1.981334e-02 32.2503)" width="2.8" height="2"/>
</svg>
