<svg xmlns="http://www.w3.org/2000/svg" xmlns:xlink="http://www.w3.org/1999/xlink" viewBox="0 0 100 125" version="1.1" x="0px" y="0px"><title>Artboard 1 Copy 143</title><desc>Created with Sketch.</desc><g stroke="none" stroke-width="1" fill="none" fill-rule="evenodd"><g fill="#000000"><path d="M39.9776685,53.436545 L62.0199057,31.3943079 C62.4047258,31.0094877 62.4098234,30.3712252 62.0192991,29.9807009 C61.6260521,29.587454 60.9958814,29.589905 60.6056921,29.9800943 L37.9770619,52.6087245 C37.7567733,52.8290131 37.6609175,53.1323533 37.692477,53.42473 C37.6523899,53.7229643 37.7477898,54.0350934 37.9770619,54.2643656 L60.6056921,76.8929958 C60.9905123,77.2778159 61.6287748,77.2829135 62.0192991,76.8923892 C62.412546,76.4991422 62.410095,75.8689715 62.0199057,75.4787822 L39.9776685,53.436545 Z" transform="translate(49.998484, 53.435029) rotate(-90.000000) translate(-49.998484, -53.435029) "/><path d="M50,91 C72.6436747,91 91,72.6436747 91,50 C91,27.3563253 72.6436747,9 50,9 C27.3563253,9 9,27.3563253 9,50 C9,72.6436747 27.3563253,91 50,91 L50,91 Z M50,89 C28.4608948,89 11,71.5391052 11,50 C11,28.4608948 28.4608948,11 50,11 C71.5391052,11 89,28.4608948 89,50 C89,71.5391052 71.5391052,89 50,89 L50,89 Z" transform="translate(50.000000, 50.000000) rotate(-90.000000) translate(-50.000000, -50.000000) "/></g></g><text x="0" y="115" fill="#000000" font-size="5px" font-weight="bold" font-family="'Helvetica Neue', Helvetica, Arial-Unicode, Arial, Sans-serif">Created by Nikita Tcherednikov</text><text x="0" y="120" fill="#000000" font-size="5px" font-weight="bold" font-family="'Helvetica Neue', Helvetica, Arial-Unicode, Arial, Sans-serif">from the Noun Project</text>
<style>
    ::hover {
    color: white;
    }
  </style>
</svg>