<?xml version="1.0" encoding="utf-8"?>
<!-- Generator: Adobe Illustrator 22.0.1, SVG Export Plug-In . SVG Version: 6.00 Build 0)  -->
<svg version="1.1" id="Layer_1" xmlns="http://www.w3.org/2000/svg" xmlns:xlink="http://www.w3.org/1999/xlink" x="0px" y="0px"
	 viewBox="0 0 82 82" style="enable-background:new 0 0 82 82;" xml:space="preserve">
<style type="text/css">
	.st0{fill:#FFFFFF;}
</style>
<title>Artboard 1 Copy 125</title>
<desc>Created with Sketch.</desc>
<g>
	<g>
		<path class="st0" d="M54.5,41l-22,22c-0.4,0.4-0.4,1,0,1.4s1,0.4,1.4,0l22.6-22.6c0.2-0.2,0.3-0.5,0.3-0.8s-0.1-0.6-0.3-0.8
			L33.8,17.5c-0.4-0.4-1-0.4-1.4,0c-0.4,0.4-0.4,1,0,1.4L54.5,41z"/>
		<path class="st0" d="M41,0C18.4,0,0,18.4,0,41s18.4,41,41,41s41-18.4,41-41S63.6,0,41,0L41,0z M41,2c21.5,0,39,17.5,39,39
			S62.5,80,41,80S2,62.5,2,41S19.5,2,41,2L41,2z"/>
	</g>
</g>
</svg>
