<svg xmlns="http://www.w3.org/2000/svg" xmlns:xlink="http://www.w3.org/1999/xlink" viewBox="0 0 100 125" version="1.1" x="0px" y="0px"><title>Artboard 1 Copy 107</title><desc>Created with Sketch.</desc><g stroke="none" stroke-width="1" fill="none" fill-rule="evenodd"><g fill="#000000"><path d="M39.9807009,46.5664874 L62.0229381,24.5242502 C62.4077582,24.13943 62.4128558,23.5011675 62.0223315,23.1106432 C61.6290845,22.7173963 60.9989138,22.7198474 60.6087245,23.1100366 L37.9800943,45.7386668 C37.7598057,45.9589554 37.6639499,46.2622956 37.6955094,46.5546723 C37.6554223,46.8529066 37.7508222,47.1650358 37.9800943,47.3943079 L60.6087245,70.0229381 C60.9935447,70.4077582 61.6318072,70.4128558 62.0223315,70.0223315 C62.4155784,69.6290845 62.4131274,68.9989138 62.0229381,68.6087245 L39.9807009,46.5664874 Z" transform="translate(50.001516, 46.564971) rotate(-270.000000) translate(-50.001516, -46.564971) "/><path d="M50,91 C72.6436747,91 91,72.6436747 91,50 C91,27.3563253 72.6436747,9 50,9 C27.3563253,9 9,27.3563253 9,50 C9,72.6436747 27.3563253,91 50,91 L50,91 Z M50,89 C28.4608948,89 11,71.5391052 11,50 C11,28.4608948 28.4608948,11 50,11 C71.5391052,11 89,28.4608948 89,50 C89,71.5391052 71.5391052,89 50,89 L50,89 Z" transform="translate(50.000000, 50.000000) rotate(-270.000000) translate(-50.000000, -50.000000) "/></g></g><text x="0" y="115" fill="#000000" font-size="5px" font-weight="bold" font-family="'Helvetica Neue', Helvetica, Arial-Unicode, Arial, Sans-serif">Created by Nikita Tcherednikov</text><text x="0" y="120" fill="#000000" font-size="5px" font-weight="bold" font-family="'Helvetica Neue', Helvetica, Arial-Unicode, Arial, Sans-serif">from the Noun Project</text></svg>